<svg id="图层_1" data-name="图层 1" xmlns="http://www.w3.org/2000/svg" viewBox="0 0 375.95 416.93"><defs><style>.cls-1{fill:#165497;}</style></defs><title>SIAIS_LOGO</title><path class="cls-1" d="M481.8,487.86c0-15.11.28-30.22-.08-45.32-.31-13.06-1.17-26.12-2.11-39.15q-1.53-21.22-3.68-42.4-2.74-27.45-5.92-54.86c-1.88-16.29-3.71-32.59-6.14-48.8-1.88-12.53-4.55-25-7-37.39A227.09,227.09,0,0,1,452,176c0-3.07,1.15-4,3.91-4,.87,0,1.75-.07,2.62-.12,7.85-.43,7.77-.43,7.88,7.62.17,11.74-.15,23.52.91,35.18.85,9.34,3.68,18.48,5.21,27.78,1.49,9.08,2.51,18.25,3.62,27.39,1.14,9.38,2.17,18.78,3.2,28.18.7,6.42,1.37,12.85,1.94,19.29.91,10.15,1.48,20.35,2.67,30.47,1.35,11.48,3.17,22.91,4.94,34.34.22,1.4,1.4,2.65,2.14,4,1.34-.95,3.38-1.61,3.89-2.89,1.9-4.7,4-9.51,4.72-14.46a183.68,183.68,0,0,0,2.2-27.88c-.13-9.53-1.69-19.05-2.78-28.56s-2.25-19-3.63-28.49q-3.89-26.75-8.08-53.45c-2.21-14.13-4.58-28.23-7-42.32-.73-4.29-1.8-8.52-2.71-12.78-.6-2.77-.3-4.63,3.35-4.46,3.35.16,6.75-.48,10.09-.23,1.36.1,3.47,1.36,3.79,2.49,2,7,4.27,14.11,5,21.33,1.34,13.23,1.37,26.59,2.51,39.85.93,10.85,1.5,21.85,5.85,32.11.15.34.12.81.35,1.05,1.13,1.19,2.33,2.33,3.5,3.49.94-1.21,2.36-2.28,2.74-3.64a108.23,108.23,0,0,0,2.88-13.05c.8-5.41,2-11,1.52-16.32a317,317,0,0,0-4.7-31.65c-2.58-13.18-6.68-26.07-6.44-39.73.06-3.36,1.16-4.88,4.3-4.05,6.45,1.71,12.82,3.71,19.2,5.65,2.95.9,5.79,2.33,8.79,2.8,2.68.42,3.4,1.58,3.15,3.95-.78,7.4-1.43,14.82-2.35,22.21-1,8.38-2.26,16.75-3.5,25.1-1.93,12.91-4.31,25.76-5.86,38.71-2.94,24.51-9.06,48.38-13.7,72.55-3.21,16.73-6.44,33.48-8.87,50.33a299.3,299.3,0,0,0-2.15,58.62c.75,14,3.59,27.93,2.69,42.07-1.61,25.24-4,50.36-13,74.31-2.18,5.8-4.13,11.73-6.9,17.24-2.07,4.13-5.13,4.13-8.25.57A59.8,59.8,0,0,1,471.07,558c-7.12-18.82-11.63-38.32-15.27-58-2.71-14.66-4.87-29.42-7.55-44.09-3-16.37-6.4-32.67-9.41-49-2-11.1-4.17-22.22-5.49-33.42-1.91-16.19-3.72-32.43-4.45-48.7-.65-14.69.43-29.45.35-44.17-.06-11-.73-21.91-1.19-32.86-.21-5-.46-10-.87-14.91-.79-9.66-1.71-19.32-2.59-29,0-.49-.36-1-.28-1.46,1.51-9.64-3.65-16.93-8.49-24.36-2.34-3.59-2-4.69,2.22-5.17a106.38,106.38,0,0,1,13.8-.46c.7,0,2.1,1.82,2,2.57-4.13,21.65.63,42.64,4.27,63.78,3.32,19.24,6.09,38.59,8.79,57.93,2.35,16.86,4.4,33.76,6.32,50.67,1.38,12.13,2.26,24.31,3.49,36.45,1.36,13.48,3,26.93,4.29,40.41,1,10.38,1.63,20.81,2.69,31.19,1.47,14.36,3.18,28.7,4.81,43,.76,6.65,1.51,13.31,2.39,19.95a20.83,20.83,0,0,0,1.41,4.62c1.44,3.73,3.22,4.1,5.91,1,3.6-4.1,4.12-9.26,4.25-14.38.19-7.24,0-14.5,0-21.75Z" transform="translate(-167.67 -162.27)"/><path class="cls-1" d="M345.39,532.28c-4.88-2-9.18-4.11-13.72-5.46-6.92-2.05-8.75-7.24-10.38-13.49-4.07-15.56-5.55-31.36-5.85-47.35-.2-10.72-.13-21.46-.81-32.15-.85-13.51-2.71-27-3.42-40.46-.47-8.93.4-17.93.51-26.9.08-6.18,0-12.37-.22-18.56-.07-2.21-.88-4.39-1-6.6a5.12,5.12,0,0,0-5.46-5c-1.71,0-4.35,2-5,3.65-5.26,14.09-10.44,28.18-10.81,43.58-.39,16.57,2,32.74,4.9,49,2.1,11.64,2.1,23.45,1.61,35.34-.51,12.28.47,24.63,1,36.94.14,3.16-.71,4.56-3.74,3.37a49.18,49.18,0,0,1-12.05-6.27c-7.29-5.62-12.44-12.23-12.12-22.63.58-18.71-.37-37.46,0-56.18.3-15.79,1.5-31.56,2.38-47.34.39-7,1.07-13.91,1.43-20.87a42.21,42.21,0,0,1,8.9-24.52A38.57,38.57,0,0,0,289.88,308c.58-10.45.85-20.94.72-31.41-.16-13.32-.92-26.64-1.27-40a43.19,43.19,0,0,1,.8-9.64,6.75,6.75,0,0,1,3-3.69c2.72-1.73,4.77-.63,5.72,2.33,1.61,5,3.22,10,4.65,15,4.29,15.06,8.47,30.15,12.73,45.21,1.32,4.65,2.44,9.39,4.19,13.88,2.62,6.7,5.88,13.14,8.57,19.81,3.22,8,5.74,16.17,5.43,25-.57,16.58-1.61,33.17-1.29,49.74.29,14.39,2.09,28.77,3.41,43.13,1.49,16.21,3.2,32.41,4.79,48.61q2.16,21.9,4.27,43.81A22.33,22.33,0,0,1,345.39,532.28Z" transform="translate(-167.67 -162.27)"/><path class="cls-1" d="M443.24,578.95c-4.15-4.42-8.17-8.32-8-15.68.27-14.57-.53-29.18-1.28-43.75-1.09-21-5.58-41.23-14.76-60.26a45.12,45.12,0,0,0-3.74-5.55l-1.3.42a19.57,19.57,0,0,0-.46,4.11q2.72,27.91,5.57,55.82c1.72,16.87,3.49,33.73,5.22,50.6.09.85,0,1.71,0,3.19-4.5-2-8.76-3.63-12.74-5.79-1-.54-1.66-2.8-1.5-4.16a112.09,112.09,0,0,1,2.65-16.15c3-11.14,1.54-22.1-1.08-32.87-4.1-16.84-9.34-33.4-13.23-50.28-2.7-11.73-4.18-23.77-5.79-35.73-1.39-10.35-2.42-20.77-3.2-31.18-.94-12.57-1.83-25.16-2-37.76-.27-15.35.59-30.73.22-46.08-.39-16.2-1.68-32.37-2.5-48.56-.85-16.69-1.78-33.37-2.32-50.07-.34-10.33.08-20.68-.07-31,0-3,1.22-4.07,3.84-4.32.37,0,.74-.13,1.11-.13,11.35-.09,12.21-1.21,14.81,11.11a259,259,0,0,1,4.17,27.34c.7,6.91.4,13.92.45,20.88.22,30.35.37,60.7.63,91,.08,9.43,0,18.9.82,28.27,1.11,12.49,2.32,25.06,4.79,37.34,6.69,33.22,14.24,66.26,21.1,99.45,5.81,28.13,9.81,56.51,9.56,85.35,0,1.36,0,2.73,0,4.09Z" transform="translate(-167.67 -162.27)"/><path class="cls-1" d="M167.75,478.75c0-23.59-.22-47.18.07-70.77.26-21.17,3.09-42.07,6.72-63,2.33-13.37,7.18-25.67,12.79-37.71a278,278,0,0,0,11.13-29.2c3.9-11.61,7.77-23.41,15-33.58,2.92-4.11,5.67-8.47,9.27-11.9,1.85-1.76,5.49-2.61,8.16-2.32,5.14.54,6.45,3.06,6.67,9.77.43,12.73-2.21,25-5.79,37.07a350.14,350.14,0,0,0-10.62,48.79c-1.6,11-3.22,21.92-4.42,32.93-1.3,11.87-2.2,23.78-3.13,35.68-1,13.27-1.92,26.55-2.87,39.83,0,.62-.06,1.25-.06,1.87q-.36,30.15-.71,60.3c-.06,5.8-.06,5.4-5.68,6-7.89.88-10.78-4.06-11-10.87-.66-24.59-1.15-49.21-.69-73.79.29-15.27,2.43-30.51,3.75-45.76.69-7.94,1.31-15.9,2.13-23.83.76-7.28,1.75-14.54,2.62-21.81.32-2.67,1.51-6.32-1.5-7.22-1.45-.43-5,2.69-6,4.92a103.94,103.94,0,0,0-5.34,15.89c-2.71,9.93-5.57,19.84-7.56,29.92-2.93,14.82-3.68,29.89-3.62,45s-.25,30,.1,44.94c.28,12.2,1.33,24.39,1.91,36.58.09,1.88-.06,5.11-.94,5.43-2.56.95-5.55.91-8.36.81-.49,0-1.27-2.21-1.29-3.41-.12-6.87-.06-13.75-.06-20.62Z" transform="translate(-167.67 -162.27)"/><path class="cls-1" d="M350.35,227.81c-.57-4.28-1.44-8.54-1.65-12.84-.35-7.15-2.17-14.75,2.52-21.07,3.12-4.2,7.32-7.62,11.18-11.24,1.33-1.25,2.57-.88,2.77,1.18.25,2.6.67,5.19.67,7.79.06,36.49-.23,73,.2,109.46.19,16.42,1.78,32.83,2.77,49.24.71,11.66,1.26,23.34,2.29,35,1.55,17.57,3.17,35.14,5.28,52.65,1.68,13.92,4,27.78,6.31,41.62,1.44,8.58,3.86,17,5.1,25.6a88.8,88.8,0,0,1-1.54,35.14c-.62,2.39-1.55,3.56-3.75,1.54-4.09-3.75-8-7.73-12.18-11.36-5.45-4.7-5.41-11.22-6-17.44q-1.93-19.28-3.36-38.61c-.68-9.3-.82-18.65-1.43-28-.67-10.19-1.53-20.37-2.43-30.54-.76-8.53-1.7-17.05-2.59-25.58-1-10-2.16-20-3.16-30-.81-8.06-1.46-16.14-2.22-24.21-1-10.4-1.72-20.83-3.06-31.18s-2.62-21-5.21-31.18c-2.28-9-6.71-17.38-9.52-26.25-2.93-9.24-5.14-18.7-7.48-28.12-.75-3,.18-5.48,3.23-7.16,2.9-1.59,5.27-4.28,8.27-5.54,5.95-2.5,7.87-.83,9,5.34,1,5.49,2.85,10.82,4.33,16.22Z" transform="translate(-167.67 -162.27)"/><path class="cls-1" d="M255.34,328.09a42.37,42.37,0,0,0,11.05-18.59,124.72,124.72,0,0,0,4.92-50.6c-1.08-10.26-2.22-20.51-3.3-30.77a13,13,0,0,1,0-3.74c.19-1,.71-2.42,1.4-2.62s2,.59,2.76,1.22c6.58,5.29,6.77,12.83,7,20.33.49,14.34.78,28.69,1.58,43,.56,10,1.27,20-2,29.68-2,6-4.62,11.74-7.16,17.51-6.17,14.07-16.36,26.31-19.55,41.7a125.53,125.53,0,0,0-2.84,22.17c-.65,25.23-.83,50.47-1.1,75.7-.08,7.87,0,15.75.28,23.61.12,3.4-.69,5.48-4.33,6-2.81.43-5.54,1.51-8.36,1.76-3.86.35-6.44-1.67-7.26-5.46a37.58,37.58,0,0,1-1-8.12c.12-15.47-.09-31,.76-46.4,1-18.61,2.78-37.19,4.64-55.74q2.66-26.55,6.22-53c1.73-12.91,4.27-25.71,6.15-38.6,1.42-9.71,2.6-19.48,3.45-29.25,1-11.64,1.53-23.33,2.32-35,.22-3.23,4.27-6.51,7.43-5.9a3.6,3.6,0,0,1,2.46,2.15c.86,6.13,2.15,12.33,2,18.46-.28,8.94-1.59,17.85-2.64,26.76-1.39,11.83-3,23.63-4.42,35.46-.71,6-1.16,12-1.72,17.93Z" transform="translate(-167.67 -162.27)"/></svg>